# xmcd CD database file
# Copyright (C) 1993-1998 Ti Kan
# 
# Track frame offsets:
#     183
#     13023
#     26198
#     39088
#     54180
#     64605
#     77483
#     91590
#     105308
#     117823
#     129263
#     142665
#     155380
#     167863
# 
# Disc length: 2435 seconds
# 
# Revision: 1
# Processed by: cddbd v1.4b41PL1 Copyright (c) Steve Scherf et al.
# Submitted via: DiscPlay 4.0.4
# 
DISCID=9409810e
DTITLE=Muddy Waters - I'm your Hoochie Coochie Man
DYEAR=1900
DGENRE=
TTITLE0=I'm your Hoochie Coochie Man
TTITLE1=Close to You
TTITLE2=Forty Days and Forty Nights
TTITLE3=Standing Around Crying
TTITLE4=Diamonds At Your Feet
TTITLE5=I Just Want to Make Love to You
TTITLE6=Rollin' Stone
TTITLE7=I'm Ready
TTITLE8=Mean Mistreater
TTITLE9=Just a Dream
TTITLE10=A Got a Rich Man's Woman
TTITLE11=Appealing Blues (Hello Little Girl)
TTITLE12=All Aboard
TTITLE13=Iodine In My Coffee
EXTD=
EXTT0=
EXTT1=
EXTT2=
EXTT3=
EXTT4=
EXTT5=
EXTT6=
EXTT7=
EXTT8=
EXTT9=
EXTT10=
EXTT11=
EXTT12=
EXTT13=
PLAYORDER=
